<svg width="698" height="416" viewBox="0 0 698 416" fill="none" xmlns="http://www.w3.org/2000/svg">
  <rect x="3" y="3" width="692" height="362" rx="6" stroke="black" stroke-width="6" />
  <rect x="572" y="278" width="100" height="135" stroke="black" stroke-width="6" />
  <path d="M186 74H39" stroke="black" stroke-width="4" />
  <path d="M186 142H39" stroke="black" stroke-width="4" />
  <path d="M186 219H39" stroke="black" stroke-width="4" />
  <path d="M186 300H39" stroke="black" stroke-width="4" />
  <rect x="217" y="46" width="48" height="48" stroke="black" stroke-width="4" />
  <rect x="297" y="46" width="48" height="48" stroke="black" stroke-width="4" />
  <rect x="217" y="126" width="48" height="48" stroke="black" stroke-width="4" />
  <rect x="297" y="126" width="48" height="48" stroke="black" stroke-width="4" />
  <rect x="217" y="206" width="48" height="48" stroke="black" stroke-width="4" />
  <rect x="297" y="206" width="48" height="48" stroke="black" stroke-width="4" />
  <rect x="217" y="286" width="48" height="48" stroke="black" stroke-width="4" />
  <rect x="297" y="286" width="48" height="48" stroke="black" stroke-width="4" />
  <text x="297" y="286">
    OJLAAA
  </text>
  <path
    d="M451.023 50.4545V97H441.182V59.7955H440.909L430.25 66.4773V57.75L441.773 50.4545H451.023ZM479.949 97.6364C477.555 97.6212 475.244 97.2197 473.017 96.4318C470.805 95.6439 468.82 94.3636 467.062 92.5909C465.305 90.8182 463.911 88.4697 462.881 85.5455C461.866 82.6212 461.358 79.0303 461.358 74.7727C461.373 70.8636 461.82 67.3712 462.699 64.2955C463.593 61.2045 464.866 58.5833 466.517 56.4318C468.184 54.2803 470.176 52.6439 472.494 51.5227C474.813 50.3864 477.411 49.8182 480.29 49.8182C483.396 49.8182 486.138 50.4242 488.517 51.6364C490.896 52.8333 492.805 54.4621 494.244 56.5227C495.699 58.5833 496.578 60.8939 496.881 63.4545H487.176C486.797 61.8333 486.002 60.5606 484.79 59.6364C483.578 58.7121 482.078 58.25 480.29 58.25C477.259 58.25 474.956 59.5682 473.381 62.2045C471.82 64.8409 471.025 68.4242 470.994 72.9545H471.312C472.009 71.5758 472.949 70.4015 474.131 69.4318C475.328 68.447 476.684 67.697 478.199 67.1818C479.729 66.6515 481.343 66.3864 483.04 66.3864C485.797 66.3864 488.252 67.0379 490.403 68.3409C492.555 69.6288 494.252 71.4015 495.494 73.6591C496.737 75.9167 497.358 78.5 497.358 81.4091C497.358 84.5606 496.623 87.3636 495.153 89.8182C493.699 92.2727 491.661 94.197 489.04 95.5909C486.434 96.9697 483.403 97.6515 479.949 97.6364ZM479.903 89.9091C481.419 89.9091 482.775 89.5455 483.972 88.8182C485.169 88.0909 486.108 87.1061 486.79 85.8636C487.472 84.6212 487.812 83.2273 487.812 81.6818C487.812 80.1364 487.472 78.75 486.79 77.5227C486.123 76.2955 485.199 75.3182 484.017 74.5909C482.835 73.8636 481.487 73.5 479.972 73.5C478.835 73.5 477.782 73.7121 476.812 74.1364C475.858 74.5606 475.017 75.1515 474.29 75.9091C473.578 76.6667 473.017 77.5455 472.608 78.5455C472.199 79.5303 471.994 80.5833 471.994 81.7045C471.994 83.2045 472.335 84.5758 473.017 85.8182C473.714 87.0606 474.653 88.053 475.835 88.7955C477.032 89.5379 478.388 89.9091 479.903 89.9091Z"
    fill="black" />
  <path
    d="M451.023 127.455V174H441.182V136.795H440.909L430.25 143.477V134.75L441.773 127.455H451.023ZM479.949 174.636C477.555 174.621 475.244 174.22 473.017 173.432C470.805 172.644 468.82 171.364 467.062 169.591C465.305 167.818 463.911 165.47 462.881 162.545C461.866 159.621 461.358 156.03 461.358 151.773C461.373 147.864 461.82 144.371 462.699 141.295C463.593 138.205 464.866 135.583 466.517 133.432C468.184 131.28 470.176 129.644 472.494 128.523C474.813 127.386 477.411 126.818 480.29 126.818C483.396 126.818 486.138 127.424 488.517 128.636C490.896 129.833 492.805 131.462 494.244 133.523C495.699 135.583 496.578 137.894 496.881 140.455H487.176C486.797 138.833 486.002 137.561 484.79 136.636C483.578 135.712 482.078 135.25 480.29 135.25C477.259 135.25 474.956 136.568 473.381 139.205C471.82 141.841 471.025 145.424 470.994 149.955H471.312C472.009 148.576 472.949 147.402 474.131 146.432C475.328 145.447 476.684 144.697 478.199 144.182C479.729 143.652 481.343 143.386 483.04 143.386C485.797 143.386 488.252 144.038 490.403 145.341C492.555 146.629 494.252 148.402 495.494 150.659C496.737 152.917 497.358 155.5 497.358 158.409C497.358 161.561 496.623 164.364 495.153 166.818C493.699 169.273 491.661 171.197 489.04 172.591C486.434 173.97 483.403 174.652 479.949 174.636ZM479.903 166.909C481.419 166.909 482.775 166.545 483.972 165.818C485.169 165.091 486.108 164.106 486.79 162.864C487.472 161.621 487.812 160.227 487.812 158.682C487.812 157.136 487.472 155.75 486.79 154.523C486.123 153.295 485.199 152.318 484.017 151.591C482.835 150.864 481.487 150.5 479.972 150.5C478.835 150.5 477.782 150.712 476.812 151.136C475.858 151.561 475.017 152.152 474.29 152.909C473.578 153.667 473.017 154.545 472.608 155.545C472.199 156.53 471.994 157.583 471.994 158.705C471.994 160.205 472.335 161.576 473.017 162.818C473.714 164.061 474.653 165.053 475.835 165.795C477.032 166.538 478.388 166.909 479.903 166.909Z"
    fill="black" />
  <path
    d="M451.023 207.455V254H441.182V216.795H440.909L430.25 223.477V214.75L441.773 207.455H451.023ZM479.949 254.636C477.555 254.621 475.244 254.22 473.017 253.432C470.805 252.644 468.82 251.364 467.062 249.591C465.305 247.818 463.911 245.47 462.881 242.545C461.866 239.621 461.358 236.03 461.358 231.773C461.373 227.864 461.82 224.371 462.699 221.295C463.593 218.205 464.866 215.583 466.517 213.432C468.184 211.28 470.176 209.644 472.494 208.523C474.813 207.386 477.411 206.818 480.29 206.818C483.396 206.818 486.138 207.424 488.517 208.636C490.896 209.833 492.805 211.462 494.244 213.523C495.699 215.583 496.578 217.894 496.881 220.455H487.176C486.797 218.833 486.002 217.561 484.79 216.636C483.578 215.712 482.078 215.25 480.29 215.25C477.259 215.25 474.956 216.568 473.381 219.205C471.82 221.841 471.025 225.424 470.994 229.955H471.312C472.009 228.576 472.949 227.402 474.131 226.432C475.328 225.447 476.684 224.697 478.199 224.182C479.729 223.652 481.343 223.386 483.04 223.386C485.797 223.386 488.252 224.038 490.403 225.341C492.555 226.629 494.252 228.402 495.494 230.659C496.737 232.917 497.358 235.5 497.358 238.409C497.358 241.561 496.623 244.364 495.153 246.818C493.699 249.273 491.661 251.197 489.04 252.591C486.434 253.97 483.403 254.652 479.949 254.636ZM479.903 246.909C481.419 246.909 482.775 246.545 483.972 245.818C485.169 245.091 486.108 244.106 486.79 242.864C487.472 241.621 487.812 240.227 487.812 238.682C487.812 237.136 487.472 235.75 486.79 234.523C486.123 233.295 485.199 232.318 484.017 231.591C482.835 230.864 481.487 230.5 479.972 230.5C478.835 230.5 477.782 230.712 476.812 231.136C475.858 231.561 475.017 232.152 474.29 232.909C473.578 233.667 473.017 234.545 472.608 235.545C472.199 236.53 471.994 237.583 471.994 238.705C471.994 240.205 472.335 241.576 473.017 242.818C473.714 244.061 474.653 245.053 475.835 245.795C477.032 246.538 478.388 246.909 479.903 246.909Z"
    fill="black" />
  <path
    d="M451.023 287.455V334H441.182V296.795H440.909L430.25 303.477V294.75L441.773 287.455H451.023ZM479.949 334.636C477.555 334.621 475.244 334.22 473.017 333.432C470.805 332.644 468.82 331.364 467.062 329.591C465.305 327.818 463.911 325.47 462.881 322.545C461.866 319.621 461.358 316.03 461.358 311.773C461.373 307.864 461.82 304.371 462.699 301.295C463.593 298.205 464.866 295.583 466.517 293.432C468.184 291.28 470.176 289.644 472.494 288.523C474.813 287.386 477.411 286.818 480.29 286.818C483.396 286.818 486.138 287.424 488.517 288.636C490.896 289.833 492.805 291.462 494.244 293.523C495.699 295.583 496.578 297.894 496.881 300.455H487.176C486.797 298.833 486.002 297.561 484.79 296.636C483.578 295.712 482.078 295.25 480.29 295.25C477.259 295.25 474.956 296.568 473.381 299.205C471.82 301.841 471.025 305.424 470.994 309.955H471.312C472.009 308.576 472.949 307.402 474.131 306.432C475.328 305.447 476.684 304.697 478.199 304.182C479.729 303.652 481.343 303.386 483.04 303.386C485.797 303.386 488.252 304.038 490.403 305.341C492.555 306.629 494.252 308.402 495.494 310.659C496.737 312.917 497.358 315.5 497.358 318.409C497.358 321.561 496.623 324.364 495.153 326.818C493.699 329.273 491.661 331.197 489.04 332.591C486.434 333.97 483.403 334.652 479.949 334.636ZM479.903 326.909C481.419 326.909 482.775 326.545 483.972 325.818C485.169 325.091 486.108 324.106 486.79 322.864C487.472 321.621 487.812 320.227 487.812 318.682C487.812 317.136 487.472 315.75 486.79 314.523C486.123 313.295 485.199 312.318 484.017 311.591C482.835 310.864 481.487 310.5 479.972 310.5C478.835 310.5 477.782 310.712 476.812 311.136C475.858 311.561 475.017 312.152 474.29 312.909C473.578 313.667 473.017 314.545 472.608 315.545C472.199 316.53 471.994 317.583 471.994 318.705C471.994 320.205 472.335 321.576 473.017 322.818C473.714 324.061 474.653 325.053 475.835 325.795C477.032 326.538 478.388 326.909 479.903 326.909Z"
    fill="black" />
</svg>