<?xml version="1.0" standalone="no"?>
<!DOCTYPE svg PUBLIC "-//W3C//DTD SVG 20010904//EN"
 "http://www.w3.org/TR/2001/REC-SVG-20010904/DTD/svg10.dtd">
<svg version="1.0" xmlns="http://www.w3.org/2000/svg"
 width="1038.000000pt" height="840.000000pt" viewBox="0 0 1038.000000 840.000000"
 preserveAspectRatio="xMidYMid meet">

<g transform="translate(0.000000,840.000000) scale(0.100000,-0.100000)"
fill="#000000" stroke="none">
<path d="M3085 8146 c-144 -33 -210 -73 -440 -266 -199 -167 -205 -169 -445
-174 -158 -3 -239 -21 -355 -76 -197 -95 -336 -269 -411 -515 -25 -82 -28
-104 -28 -245 0 -150 2 -162 53 -395 29 -132 56 -271 58 -308 l6 -68 -80 -117
c-102 -148 -138 -221 -163 -325 -56 -233 11 -404 205 -517 22 -13 42 -25 44
-26 5 -4 -42 -84 -109 -184 -31 -47 -81 -130 -111 -185 -29 -55 -77 -139 -105
-188 -64 -108 -154 -315 -154 -355 0 -34 36 -86 111 -164 63 -64 92 -83 136
-92 29 -5 35 -2 48 25 11 21 14 43 10 72 -12 85 79 319 254 647 66 124 177
361 201 427 27 75 22 120 -20 166 -27 31 -31 32 -120 36 l-91 3 -16 34 c-35
72 22 197 158 351 51 57 83 102 90 128 15 51 2 143 -51 377 -21 95 -44 212
-50 259 -11 81 -10 92 20 225 57 247 110 357 220 456 66 60 240 169 318 198
91 35 234 53 368 47 66 -3 125 -3 130 1 6 4 29 34 51 67 152 223 265 297 453
299 162 1 307 -60 427 -181 82 -81 92 -88 148 -97 31 -5 74 3 185 34 192 54
330 64 440 31 197 -60 415 -200 485 -312 47 -73 163 -363 177 -439 8 -44 13
-143 12 -241 -1 -157 -3 -173 -39 -320 -22 -88 -55 -189 -77 -236 -74 -159
-103 -257 -94 -315 18 -123 116 -177 228 -126 29 14 80 47 113 73 189 154 374
118 484 -94 64 -124 81 -205 88 -416 5 -201 -2 -293 -47 -540 -54 -301 -60
-355 -60 -526 0 -176 8 -220 51 -281 44 -61 115 -66 184 -13 17 12 73 93 125
180 114 188 146 228 208 256 74 33 174 51 223 40 67 -15 94 -50 109 -138 21
-133 51 -191 113 -225 75 -41 112 -23 334 162 225 188 233 193 301 198 78 5
110 -18 197 -148 76 -113 124 -155 164 -145 31 8 252 169 337 246 70 64 98 81
162 98 48 13 55 26 67 107 l6 51 -42 32 c-83 60 -174 36 -293 -77 -78 -74
-156 -112 -230 -112 -48 0 -65 15 -111 95 -38 67 -138 170 -190 195 -23 11
-58 20 -79 20 -85 0 -111 -17 -285 -182 -91 -87 -173 -158 -182 -158 -24 0
-33 14 -88 139 -58 131 -103 190 -167 221 -40 20 -57 22 -129 18 -135 -9 -178
-38 -350 -237 -137 -158 -140 -161 -173 -161 -40 0 -42 15 -21 130 10 52 34
196 55 320 75 452 53 790 -68 1040 -33 68 -57 101 -123 165 -44 45 -98 89
-118 99 -67 31 -175 48 -266 42 l-84 -5 7 167 c8 202 -4 381 -39 602 -67 421
-167 654 -365 850 -125 123 -221 175 -406 216 -64 15 -131 18 -344 20 l-265 1
-225 115 c-139 71 -252 122 -295 133 -92 23 -280 29 -360 11z"/>
<path d="M3127 7186 c-56 -20 -104 -56 -135 -100 -37 -54 -37 -131 -1 -197
l26 -45 -23 -34 c-13 -18 -36 -62 -51 -97 -26 -60 -44 -76 -58 -53 -13 21
-109 62 -179 77 -48 10 -96 13 -147 9 -184 -15 -317 -101 -395 -256 -24 -47
-28 -67 -28 -140 0 -175 65 -315 282 -604 40 -55 76 -104 78 -111 3 -6 -12
-23 -33 -37 -120 -79 -203 -188 -203 -267 0 -56 28 -63 85 -22 91 65 439 208
665 273 229 66 402 91 635 92 110 0 238 -5 285 -11 47 -7 157 -22 245 -33 88
-12 201 -30 250 -41 50 -11 110 -19 135 -17 38 2 46 7 48 25 9 63 -79 163
-194 220 -55 27 -74 41 -70 52 35 107 100 344 116 420 54 270 30 395 -105 527
-115 113 -255 159 -403 134 -95 -16 -216 -76 -282 -140 -45 -44 -51 -47 -60
-31 -5 10 -36 40 -69 66 -56 46 -58 50 -50 79 13 46 11 124 -5 154 -38 73
-137 122 -246 121 -41 0 -92 -6 -113 -13z m988 -455 c55 -25 102 -66 128 -115
20 -37 22 -55 22 -191 -1 -147 -2 -152 -38 -260 -21 -60 -53 -137 -71 -170
-18 -33 -36 -72 -40 -87 -4 -20 -13 -28 -28 -28 -32 0 -255 39 -283 50 -30 11
-31 20 -5 95 13 38 20 84 20 135 0 96 -31 266 -63 346 l-24 61 38 54 c22 30
49 62 62 72 83 66 185 80 282 38z m-716 -40 c55 -29 105 -89 150 -183 60 -125
82 -218 88 -389 3 -80 3 -162 -1 -181 l-6 -35 -158 -11 c-86 -7 -195 -18 -242
-26 -47 -7 -88 -11 -91 -7 -17 18 -51 142 -70 261 -20 121 -21 146 -11 247 8
85 17 126 38 170 29 60 107 147 146 163 40 16 117 11 157 -9z m-659 -152 c25
-11 65 -33 90 -50 l45 -31 1 -131 c0 -159 17 -233 79 -365 25 -52 45 -100 45
-107 0 -7 -31 -20 -72 -30 -40 -9 -104 -30 -142 -46 -37 -16 -72 -29 -76 -29
-4 0 -19 18 -34 40 -15 22 -77 100 -138 173 -108 129 -169 229 -184 306 -10
46 14 162 42 203 24 37 81 74 139 89 45 12 154 0 205 -22z"/>
<path d="M3535 5175 c-168 -19 -242 -36 -396 -95 -150 -57 -229 -96 -324 -159
-80 -52 -342 -303 -388 -371 -17 -25 -68 -95 -114 -157 -59 -79 -103 -154
-153 -259 -105 -220 -139 -343 -166 -599 -19 -187 -15 -468 11 -659 39 -291
155 -623 279 -800 22 -32 46 -66 51 -75 25 -39 171 -203 246 -277 142 -136
295 -224 524 -300 170 -56 295 -74 543 -81 234 -7 361 5 527 47 139 36 207 65
480 205 289 149 430 196 589 200 104 2 110 3 118 25 5 13 3 131 -4 270 -22
453 13 581 182 659 44 20 70 25 128 24 60 -1 74 2 82 17 14 27 8 189 -8 202
-9 8 -78 8 -250 -1 -179 -10 -313 -10 -547 -3 -412 14 -573 12 -585 -8 -13
-21 -22 -105 -18 -170 l3 -55 126 -6 c111 -5 133 -9 182 -33 132 -64 215 -254
178 -403 -36 -142 -192 -372 -302 -445 -162 -107 -322 -154 -585 -173 -313
-23 -658 122 -900 377 -131 138 -204 270 -268 479 -73 243 -100 445 -99 759 0
329 20 477 98 715 74 227 161 377 302 519 96 97 163 143 308 212 138 67 259
98 456 120 229 25 375 2 544 -83 184 -93 317 -219 395 -372 31 -62 70 -256 70
-350 0 -67 3 -80 18 -85 9 -2 82 -6 161 -8 l144 -3 9 30 c13 41 29 1085 17
1107 -13 23 -59 31 -140 23 -79 -8 -72 0 -109 -120 -12 -38 -30 -90 -42 -116
l-20 -48 -48 30 c-67 41 -294 148 -430 202 -219 88 -575 125 -875 92z"/>
<path d="M9042 4528 c2 -46 -3 -112 -11 -148 -12 -60 -49 -160 -59 -160 -2 0
-22 16 -45 35 -93 80 -189 106 -332 90 -79 -8 -87 -19 -57 -80 26 -54 24 -55
-110 -63 -135 -7 -134 -25 9 -138 247 -195 389 -250 578 -225 91 13 95 13 129
-9 20 -12 36 -27 36 -34 0 -7 11 -23 25 -36 31 -29 149 -200 142 -206 -2 -2
-16 0 -31 6 -15 5 -40 10 -55 10 -16 0 -46 14 -72 34 -73 56 -144 76 -264 76
-99 0 -105 -1 -105 -20 0 -29 137 -179 190 -208 38 -20 54 -23 104 -18 33 3
79 15 103 27 33 16 52 19 85 14 87 -15 124 -47 178 -156 63 -124 149 -353 137
-365 -6 -6 -76 65 -139 142 -118 145 -122 147 -323 179 -55 9 -117 23 -137 30
-25 10 -39 11 -44 4 -14 -24 10 -60 77 -115 41 -33 107 -103 152 -162 43 -56
92 -109 107 -117 18 -9 57 -15 102 -15 66 0 79 -4 143 -40 39 -22 81 -48 94
-58 53 -42 85 -283 61 -453 -7 -49 -16 -92 -20 -94 -9 -6 -71 97 -134 222 -49
98 -73 123 -165 167 -30 14 -60 35 -68 46 -15 21 -38 26 -47 11 -6 -9 83 -282
116 -361 23 -54 67 -85 150 -105 40 -10 80 -24 89 -32 9 -8 24 -38 34 -68 15
-48 20 -54 43 -54 15 1 36 -1 46 -3 14 -2 21 4 26 22 4 19 16 28 50 38 25 7
68 19 96 27 113 33 197 156 150 220 -13 18 -16 18 -74 -18 -33 -20 -97 -53
-142 -72 -67 -29 -81 -32 -75 -18 4 10 13 38 20 63 6 25 37 98 68 162 l56 117
55 -6 c70 -7 98 0 141 39 74 64 93 138 102 400 5 152 4 168 -11 174 -10 4 -28
2 -42 -5 -25 -11 -30 -20 -60 -106 -14 -40 -38 -71 -125 -155 -100 -98 -108
-109 -114 -154 -4 -27 -3 -68 2 -92 9 -40 7 -48 -26 -106 l-36 -63 -10 110
c-5 61 -9 182 -9 270 1 142 4 168 25 235 l25 75 63 17 c75 20 89 31 112 83 42
95 56 250 33 362 -3 19 -48 53 -68 53 -3 0 -17 -24 -31 -52 -13 -29 -49 -84
-79 -121 -66 -83 -97 -144 -103 -205 -3 -26 -18 -84 -34 -130 -16 -45 -32
-112 -35 -149 -8 -79 -4 -86 -84 125 -67 176 -72 235 -35 390 l27 112 31 0
c48 1 124 52 158 106 26 43 24 92 -12 214 -16 58 -35 141 -41 184 -13 87 -35
124 -78 128 -22 3 -27 -5 -60 -97 -33 -90 -80 -188 -154 -315 -14 -25 -26 -55
-26 -68 0 -25 24 -77 47 -104 13 -14 13 -28 4 -85 -6 -37 -12 -88 -14 -113
l-2 -45 -64 108 c-36 59 -92 136 -126 171 l-60 64 32 48 c42 62 73 144 73 193
0 97 -76 267 -185 414 -84 113 -96 113 -93 5z"/>
<path d="M418 4124 c-1 -5 -2 -74 -3 -154 -1 -80 -10 -209 -19 -287 -15 -117
-16 -157 -7 -224 20 -152 70 -202 332 -337 46 -23 47 -24 54 -85 8 -76 89
-474 109 -540 l15 -47 -74 52 -75 52 0 63 c0 59 -2 66 -32 94 -50 45 -235 134
-365 175 -65 21 -131 46 -148 56 -34 21 -75 24 -75 6 0 -7 17 -39 38 -70 20
-32 64 -103 97 -158 111 -185 124 -202 190 -235 76 -38 176 -41 239 -8 l39 20
96 -65 c108 -73 98 -56 181 -287 62 -174 99 -253 191 -407 l59 -101 -41 7
c-23 4 -67 17 -98 29 l-56 22 -5 57 c-10 114 -94 174 -291 207 -63 10 -184 40
-267 65 -175 53 -202 56 -202 24 0 -47 215 -346 307 -429 27 -23 82 -58 123
-78 61 -29 86 -36 136 -36 51 0 66 4 98 29 42 32 78 85 71 103 -2 8 15 4 48
-9 59 -24 172 -56 202 -58 13 0 38 -28 75 -82 73 -108 217 -287 297 -371 36
-37 64 -70 61 -72 -2 -3 -41 -2 -86 2 l-82 6 -25 54 c-21 47 -31 57 -77 78
-77 36 -115 38 -293 20 -88 -9 -218 -20 -290 -23 -121 -7 -130 -8 -133 -27 -2
-12 7 -30 20 -42 31 -29 178 -135 263 -190 39 -25 96 -63 127 -85 80 -54 118
-68 188 -68 95 0 143 36 190 142 30 68 33 69 165 64 l117 -6 56 -51 c129 -118
269 -218 424 -304 48 -27 85 -51 83 -55 -5 -8 -145 -54 -149 -48 -1 1 -10 16
-20 31 -23 37 -108 77 -164 77 -23 0 -93 -11 -155 -24 -151 -33 -297 -56 -352
-56 -49 0 -67 -18 -45 -45 18 -22 267 -184 355 -231 133 -71 258 -89 336 -48
38 19 59 71 59 146 l0 64 73 17 c39 10 94 28 122 41 l50 22 67 -33 c37 -18
100 -46 140 -62 40 -16 120 -50 178 -76 193 -86 215 -95 256 -95 65 0 129 27
170 72 30 34 35 45 30 72 -9 44 -42 73 -119 104 l-68 27 -33 77 c-18 42 -42
88 -54 102 l-20 26 33 33 c67 67 51 154 -45 240 -85 77 -173 115 -326 143
-127 23 -154 24 -154 5 0 -5 36 -56 80 -115 43 -58 100 -147 125 -196 69 -132
127 -175 203 -152 29 9 40 9 50 -1 12 -12 63 -129 59 -134 -1 -1 -74 19 -162
44 -100 28 -224 73 -334 121 l-175 77 -8 40 c-4 22 -20 80 -37 128 -27 80 -29
91 -16 111 8 12 21 41 30 65 14 40 14 46 -3 85 -22 49 -139 161 -225 217 -62
40 -132 67 -144 56 -3 -4 5 -42 20 -85 15 -42 34 -110 43 -151 34 -152 68
-194 169 -203 27 -3 31 -8 57 -88 15 -47 27 -95 28 -107 0 -22 -1 -22 -52 9
-65 39 -81 51 -298 217 -243 186 -225 165 -225 258 0 43 1 110 3 148 l2 71 42
14 c54 20 83 59 82 113 -1 53 -20 90 -106 205 -89 118 -128 142 -128 80 0 -18
-14 -78 -30 -132 -45 -150 -39 -214 28 -263 18 -14 29 -29 27 -40 -2 -10 -4
-58 -5 -108 l-1 -90 -55 60 c-31 33 -95 113 -144 178 -80 106 -89 123 -96 174
-7 62 0 349 10 373 4 8 39 25 79 37 41 12 86 34 101 48 l28 26 -7 97 c-4 53
-15 122 -25 152 -26 78 -108 261 -127 282 -26 29 -50 23 -58 -14 -4 -18 -22
-58 -40 -88 -56 -93 -105 -227 -105 -287 0 -61 20 -116 55 -153 21 -22 23 -30
15 -71 -5 -26 -10 -105 -12 -177 -3 -128 -3 -129 -21 -103 -57 83 -168 348
-216 517 -43 150 -141 585 -141 627 0 20 -5 39 -11 42 -5 4 47 36 118 71 70
35 162 83 203 107 69 41 77 49 97 100 32 78 39 177 19 255 -27 105 -85 186
-119 165 -6 -4 -58 -44 -114 -90 l-101 -83 -32 58 c-18 31 -49 77 -69 102 -62
77 -284 307 -332 344 -44 35 -107 57 -111 40z"/>
<path d="M8129 3486 c-3 -3 -30 -6 -60 -7 -178 -6 -418 -219 -501 -445 -30
-81 -37 -269 -14 -369 47 -199 180 -354 366 -424 55 -21 83 -25 180 -25 110
-1 118 0 181 31 36 18 98 60 139 94 l73 62 -6 -109 c-16 -282 -127 -504 -290
-579 -28 -14 -69 -25 -90 -25 -73 0 -152 56 -201 143 -40 72 -79 112 -119 121
-68 16 -160 -42 -173 -108 -8 -48 23 -111 82 -167 80 -74 130 -98 230 -110
165 -21 259 0 429 92 164 90 241 173 345 372 92 177 129 318 137 527 9 228
-24 399 -110 565 -83 160 -227 292 -367 336 -64 20 -220 37 -231 25z m152
-133 c57 -26 133 -104 165 -171 49 -104 65 -193 66 -368 l1 -161 -53 -77
c-114 -165 -221 -231 -337 -207 -76 15 -113 35 -167 88 -78 78 -90 126 -90
333 1 330 58 494 196 565 45 22 62 26 114 22 33 -2 80 -13 105 -24z"/>
<path d="M7056 3384 c-62 -22 -199 -36 -386 -37 -161 -1 -181 1 -244 23 -72
26 -86 22 -86 -25 0 -27 -181 -587 -280 -865 -22 -63 -39 -126 -38 -139 2 -13
15 -33 30 -44 50 -37 105 -2 158 103 40 78 106 149 165 176 61 29 187 33 256
9 120 -43 179 -187 179 -439 0 -210 -58 -376 -166 -475 -66 -60 -123 -88 -216
-102 -197 -31 -326 38 -379 203 -14 44 -35 86 -55 107 -28 31 -38 35 -92 39
-53 4 -67 1 -106 -22 -58 -34 -76 -61 -76 -114 0 -123 131 -242 346 -314 60
-20 88 -23 219 -23 267 1 452 59 659 206 171 123 247 254 262 457 8 104 -9
181 -61 288 -59 121 -201 237 -361 296 -83 30 -253 30 -377 0 -48 -12 -97 -27
-108 -32 -11 -7 -19 -7 -19 -1 0 16 132 395 143 409 7 8 47 12 137 12 149 0
295 25 376 65 59 29 117 89 170 177 48 78 35 94 -50 62z"/>
<path d="M9560 1893 c-8 -3 -43 -30 -77 -60 -49 -43 -66 -64 -77 -101 -21 -70
-90 -226 -128 -288 -50 -83 -160 -216 -280 -339 -95 -98 -118 -116 -200 -157
-51 -25 -133 -61 -183 -79 l-90 -33 -255 -1 c-208 0 -271 3 -340 18 -193 41
-307 94 -534 250 -49 34 -115 36 -164 7 -18 -11 -79 -67 -135 -123 -160 -161
-278 -231 -487 -290 -184 -52 -233 -61 -360 -61 -103 0 -125 4 -215 33 -108
36 -189 74 -274 128 -72 46 -229 182 -280 243 -66 78 -95 71 -241 -60 -289
-259 -576 -412 -930 -497 -185 -44 -510 -43 -596 2 -16 8 -38 15 -49 15 -43 0
-46 -10 -41 -134 5 -133 14 -152 91 -187 36 -16 54 -17 175 -9 150 11 212 17
315 31 39 5 133 16 211 24 108 11 166 23 250 50 146 49 463 205 628 309 l134
84 34 -20 c51 -32 439 -195 553 -233 182 -61 289 -78 455 -72 165 5 216 17
410 96 149 61 250 118 393 222 59 44 111 79 115 79 5 0 26 -9 49 -20 22 -10
105 -31 184 -45 79 -15 203 -40 274 -57 353 -81 352 -81 510 -81 134 0 159 3
240 27 112 34 221 92 302 159 240 200 258 219 369 374 103 143 274 441 278
483 1 8 14 53 30 100 34 103 44 183 26 205 -12 15 -60 19 -90 8z"/>
</g>
</svg>
